<svg width="250" height="110" viewBox="0 0 250 110" fill="none" xmlns="http://www.w3.org/2000/svg">
<g clip-path="url(#clip0_1777_6028)">
<path d="M103.5 0.5H247C248.381 0.5 249.5 1.61929 249.5 3V107C249.5 108.381 248.381 109.5 247 109.5H103.5V0.5Z" fill="white" stroke="#CFD4D9"/>
<path fill-rule="evenodd" clip-rule="evenodd" d="M214 0H237V35.2862C237 36.0519 236.175 36.5335 235.508 36.1568L225.5 30.5008L215.492 36.1568C214.825 36.5335 214 36.0519 214 35.2862V0Z" fill="#0870FF"/>
<path fill-rule="evenodd" clip-rule="evenodd" d="M228.616 13.8856C227.792 13.4206 226.923 13.1881 226.01 13.1881H225.912L229.632 8H225.74L221.703 13.5797C220.919 14.6728 220.357 15.5701 220.014 16.2716C219.671 16.9732 219.5 17.7644 219.5 18.6454C219.5 19.7548 219.769 20.75 220.308 21.6311C220.846 22.5121 221.572 23.2014 222.486 23.699C223.399 24.1966 224.378 24.4454 225.422 24.4454C226.466 24.4454 227.445 24.1966 228.359 23.699C229.273 23.2014 230.003 22.5121 230.549 21.6311C231.096 20.75 231.369 19.763 231.369 18.6699C231.369 17.6258 231.116 16.6836 230.61 15.8434C230.105 15.0031 229.44 14.3506 228.616 13.8856ZM227.319 20.6277C226.805 21.1498 226.173 21.4108 225.422 21.4108C224.672 21.4108 224.04 21.1457 223.526 20.6155C223.012 20.0852 222.755 19.4367 222.755 18.6699C222.755 17.9031 223.012 17.2587 223.526 16.7366C224.04 16.2145 224.672 15.9535 225.422 15.9535C226.173 15.9535 226.805 16.2104 227.319 16.7244C227.833 17.2383 228.09 17.8868 228.09 18.6699C228.09 19.453 227.833 20.1056 227.319 20.6277Z" fill="white"/>
<path fill-rule="evenodd" clip-rule="evenodd" d="M0 3C0 1.34314 1.34315 0 3 0H105V110H3C1.34315 110 0 108.657 0 107V3Z" fill="url(#paint0_linear_1777_6028)"/>
<path d="M64.5541 64.9216C62.7081 63.5324 59.9892 62.4784 57.1108 61.3622C53.6838 60.0324 49.8 58.527 46.8838 56.2081C43.5811 53.5784 41.973 50.2622 41.973 46.0649C41.973 42.3 43.5351 39.0811 46.4919 36.754C49.8054 34.1459 54.827 32.7649 61.0108 32.7649C62.7189 32.7649 64.3513 32.8703 65.8649 33.0784C65.9973 33.0973 66.127 33.0243 66.1811 32.9054C66.2378 32.7838 66.2081 32.6405 66.1081 32.5513C62.2108 29.0459 57.173 27.1162 51.927 27.1162C46.2568 27.1162 40.9243 29.3243 36.9135 33.3351C32.9027 37.3432 30.6946 42.6757 30.6946 48.3459C30.6946 54.0162 32.9027 59.3486 36.9135 63.3568C40.9216 67.3649 46.2541 69.573 51.927 69.573C56.5081 69.573 60.873 68.1351 64.5514 65.4135C64.627 65.3568 64.6757 65.2649 64.6757 65.1703C64.6784 65.0703 64.6324 64.9784 64.5541 64.9216Z" fill="white"/>
<path d="M73.0676 46.3784C73.0595 46.2973 73.0216 46.2217 72.9595 46.1703C68.5297 42.4946 64.9459 40.9946 60.5919 40.9946C58.2676 40.9946 56.4865 41.4595 55.2973 42.3784C54.2676 43.173 53.7216 44.2838 53.7216 45.5838C53.7216 49.2298 58.1784 50.8919 63.3378 52.8163C65.9973 53.8081 68.7459 54.8325 71.2703 56.2352C71.3162 56.2595 71.3676 56.273 71.4189 56.273C71.4541 56.273 71.4892 56.2676 71.5216 56.2541C71.6054 56.2244 71.6703 56.1595 71.7027 56.0784C72.6676 53.6081 73.1568 51.0054 73.1568 48.3406C73.1568 47.7163 73.127 47.0541 73.0676 46.3784Z" fill="white"/>
<path d="M24.9541 79.2243C24.2189 78.9027 23.6162 78.6135 23.6162 78.1324C23.6162 77.7946 23.9973 77.4757 24.6351 77.4757C25.2108 77.4757 25.7054 77.6189 26.2162 77.8459C26.3595 77.9108 26.5838 77.927 26.6946 77.7027L26.9513 77.1892C27.0459 76.9973 26.9676 76.773 26.7919 76.6432C26.4243 76.4027 25.6568 76.0973 24.6351 76.0973C22.8459 76.0973 22.1135 77.1892 22.1135 78.1189C22.1135 79.3378 23.0541 79.9486 24.1865 80.4622C25.2081 80.927 25.7676 81.2486 25.7676 81.7459C25.7676 82.1622 25.4162 82.4676 24.7946 82.4676C23.9162 82.4676 23.3892 82.1622 22.9568 81.9216C22.7649 81.8081 22.5568 81.8567 22.4784 82.0189L22.1432 82.7081C22.0622 82.8676 22.1595 83.0135 22.2703 83.0919C22.6865 83.3811 23.5324 83.8459 24.6973 83.8459C26.3432 83.8459 27.3324 82.8351 27.3324 81.6784C27.3324 80.3 26.3108 79.8027 24.9541 79.2243Z" fill="white"/>
<path fill-rule="evenodd" clip-rule="evenodd" d="M68.6486 83.3676C68.6486 83.5676 68.4973 83.7325 68.2757 83.7568L67.754 83.8055C67.2486 83.8379 66.0297 83.8514 64.8459 83.8514C63.3946 83.8514 62.3784 83.3055 62.3784 81.6974C62.3784 80.273 63.4784 79.2001 65.4622 79.2001C66.2622 79.2001 67.0135 79.4352 67.0135 79.4352C67.0459 78.2136 66.7459 77.6595 65.7784 77.6595C64.8946 77.6595 64.027 77.9109 63.627 78.0271C63.3946 78.0757 63.2459 77.9244 63.1946 77.7082L63.0432 77.0703C62.9946 76.8028 63.1108 76.6865 63.2946 76.619C63.427 76.5703 64.5297 76.1838 65.9459 76.1838C68.4162 76.1838 68.6486 77.6757 68.6486 79.6028V83.3676ZM65.5248 82.6752C66.1554 82.699 66.798 82.7234 66.9973 82.3919V80.673C66.8973 80.6055 66.2973 80.4055 65.5973 80.4055C64.6973 80.4055 64.0135 80.873 64.0135 81.6784C64.0135 82.3649 64.4135 82.6487 65.2135 82.6649C65.3155 82.6672 65.42 82.6712 65.5248 82.6752Z" fill="white"/>
<path fill-rule="evenodd" clip-rule="evenodd" d="M81.7405 75.2163C81.7405 75.7028 81.3486 76.0946 80.8649 76.0946C80.3811 76.0946 79.9892 75.7028 79.9892 75.2163C79.9892 74.7298 80.3811 74.3379 80.8649 74.3379C81.3486 74.3379 81.7405 74.7298 81.7405 75.2163ZM81.6027 75.219C81.6027 74.8055 81.273 74.4676 80.8649 74.4676C80.4595 74.4676 80.127 74.8028 80.127 75.219C80.127 75.6298 80.4567 75.9676 80.8649 75.9676C81.2703 75.9676 81.6027 75.6325 81.6027 75.219Z" fill="white"/>
<path fill-rule="evenodd" clip-rule="evenodd" d="M80.7071 75.7729H80.5811C80.5601 75.7729 80.5432 75.7578 80.5432 75.7456V74.8003C80.5432 74.7851 80.5601 74.7729 80.5811 74.7729H81.1147C81.35 74.7729 81.5432 74.9097 81.5432 75.0799C81.5432 75.2106 81.4256 75.3201 81.2533 75.3687L81.5222 75.7304C81.5348 75.7517 81.5222 75.7729 81.4886 75.7729H81.3416C81.3206 75.7729 81.3079 75.7669 81.2995 75.7547L81.0432 75.3809H80.7449V75.7456C80.7449 75.7608 80.7281 75.7729 80.7071 75.7729ZM81.0979 74.9097H80.7491V75.2562H81.0979C81.2239 75.2562 81.3374 75.1802 81.3374 75.0799C81.3374 74.9857 81.2239 74.9097 81.0979 74.9097Z" fill="white"/>
<path d="M32.2405 76.0945C31.0757 76.0945 30.2757 76.7378 30.1 76.8648V73.554C30.1 73.3783 29.9243 73.2 29.7486 73.2H28.8541C28.6622 73.2 28.5027 73.3756 28.5027 73.554V83.4945C28.5027 83.6864 28.6622 83.8486 28.8541 83.8486H29.7324C29.9568 83.8486 30.1 83.7054 30.1 83.4945V78.6945C30.2595 78.3729 30.9 77.6189 32.0324 77.6189C32.9919 77.6189 33.5027 78.3405 33.5027 79.5621V83.4972C33.5027 83.6891 33.6622 83.8513 33.8541 83.8513H34.7486C34.9243 83.8513 35.1 83.6918 35.1 83.4972V79.5945C35.1 77.5702 34.3324 76.0945 32.2405 76.0945Z" fill="white"/>
<path fill-rule="evenodd" clip-rule="evenodd" d="M47.3946 76.0946C49.8162 76.0946 50.8649 77.1541 50.954 79.673V79.5C50.973 79.7595 50.9757 80.1568 50.9622 80.4433C50.8649 82.5487 49.7189 83.7946 48.0108 83.8487C47.0513 83.8784 45.9054 83.7811 45.6811 83.7216V86.3892C45.6811 86.6 45.5378 86.7433 45.2973 86.7433H44.5567C44.3649 86.7433 44.2054 86.5811 44.2054 86.3892V79.6135V79.3757V77.6351V77.0973V76.9514C44.2054 76.773 44.3919 76.6433 44.6432 76.5351C44.8459 76.446 46.2324 76.0946 47.3946 76.0946ZM47.7676 82.5649C48.9649 82.5 49.3784 81.8676 49.4108 80.4406C49.4162 80.1595 49.4162 79.8162 49.4162 79.5676C49.3676 77.7162 48.854 77.5 47.3973 77.5C46.7277 77.5 46.2171 77.6145 45.9411 77.6764C45.8573 77.6952 45.7952 77.7091 45.7567 77.7135C45.7135 77.7189 45.6811 77.7568 45.6811 77.8V79.4406V82.3351C45.6811 82.3892 45.7216 82.4135 45.7784 82.4324C45.7784 82.4324 47.1757 82.5973 47.7676 82.5649Z" fill="white"/>
<path d="M61.5324 76.2541H60.8622C60.6703 76.2541 60.4 76.2541 60.3027 76.4784L59.1216 80.7487H59.0892L57.1081 76.2703C57.0757 76.173 56.9649 76.0946 56.7892 76.0946H56.6784C56.5351 76.0946 56.4216 76.1757 56.3757 76.2703L54.3784 80.7324H54.3459L53.1324 76.4784C53.1 76.3351 52.9405 76.2541 52.8135 76.2541H51.8541C51.5973 76.2541 51.4865 76.446 51.5973 76.6703L53.7541 83.6514C53.7865 83.7649 53.8973 83.8433 54.0568 83.8433H54.1513C54.3108 83.8433 54.4081 83.7622 54.4378 83.6676L56.7054 78.627H56.7378L58.9892 83.6676C59.0378 83.7649 59.1486 83.8433 59.3081 83.8433H59.373C59.5324 83.8433 59.6757 83.7622 59.7081 83.6514L61.8162 76.6703C61.9324 76.4487 61.7892 76.2541 61.5324 76.2541Z" fill="white"/>
<path d="M73.3162 76.1838C73.2784 76.1838 73.2405 76.1865 73.2027 76.1892C73.1378 76.1865 73.0757 76.1838 73.0081 76.1838C72.6243 76.1838 72.2568 76.1946 71.9135 76.2136C71.2514 76.2406 70.8595 76.2892 70.5784 76.3217C70.5784 76.3217 70.4 76.3379 70.1919 76.3649C70.0514 76.3838 69.9487 76.4406 69.8892 76.5217C69.8459 76.5676 69.8216 76.6271 69.8216 76.6974V76.7217V76.8676V77.4055V78.8974V83.4919C69.8216 83.6838 69.9811 83.846 70.173 83.846H70.9081C71.2108 83.846 71.4189 83.8136 71.4189 83.4919V78.8974V77.8433C71.4189 77.8001 71.4892 77.7433 71.527 77.7217C71.7081 77.6136 72.1405 77.5352 73.0108 77.5352C73.0946 77.5352 73.1514 77.5352 73.2135 77.5379C73.4135 77.5568 73.7297 77.619 73.8324 77.6784C73.9919 77.7595 74.1838 77.7109 74.2811 77.5028L74.6649 76.873C74.8973 76.3757 74.0189 76.1838 73.3162 76.1838Z" fill="white"/>
<path fill-rule="evenodd" clip-rule="evenodd" d="M74.7 79.9622C74.7 77.8757 76.1513 76.0946 78.373 76.0946C80.2892 76.0946 81.7432 77.5243 81.7405 79.4973C81.7405 79.627 81.7243 79.8838 81.7081 80.0108C81.6919 80.2027 81.5324 80.3324 81.373 80.3324H76.2784C76.2946 81.327 77.1892 82.3541 78.4838 82.3541C79.3297 82.3541 79.8405 82.0487 80.2892 81.727C80.4513 81.6162 80.5946 81.5676 80.7216 81.7595L81.1541 82.4324C81.2811 82.5919 81.3459 82.7378 81.1216 82.9297C80.5946 83.3973 79.6189 83.846 78.3892 83.846C76.1541 83.846 74.7 82.0811 74.7 79.9622ZM78.3405 77.4568C77.173 77.4568 76.4703 78.2135 76.3595 79.1433H80.1622C80.1297 78.2433 79.427 77.4568 78.3405 77.4568Z" fill="white"/>
<path fill-rule="evenodd" clip-rule="evenodd" d="M42.2243 77.1595C42.5243 77.5 42.7568 77.9081 42.9243 78.3865C43.0919 78.8649 43.1757 79.3946 43.173 79.9703C43.173 80.5568 43.0919 81.0865 42.9243 81.5595C42.7595 82.0324 42.5243 82.4406 42.2243 82.7811C41.9216 83.1243 41.5649 83.3865 41.1486 83.5703C40.7324 83.7541 40.1405 83.846 39.6514 83.846C39.1622 83.846 38.573 83.7541 38.1568 83.5703C37.7405 83.3838 37.3811 83.1216 37.0811 82.7811C36.7811 82.4406 36.5486 82.0324 36.3811 81.5595C36.2162 81.0865 36.1324 80.5568 36.1324 79.9703C36.1324 79.3919 36.2135 78.8649 36.3811 78.3865C36.5459 77.9108 36.7811 77.5 37.0811 77.1595C37.3811 76.8162 37.7405 76.5541 38.1568 76.3703C38.573 76.1865 39.1622 76.0946 39.6514 76.0946C40.1432 76.0946 40.7324 76.1865 41.1486 76.3703C41.5649 76.5568 41.9243 76.8189 42.2243 77.1595ZM37.6108 80.0378C37.6108 81.4351 38.2811 82.5703 39.6135 82.5703C40.9459 82.5703 41.6189 81.4351 41.6189 80.0378C41.6189 78.6406 40.9459 77.5054 39.6135 77.5054C38.2811 77.5054 37.6108 78.6406 37.6108 80.0378Z" fill="white"/>
<path d="M171.815 48.115C171.301 48.115 170.841 47.9829 170.435 47.7187C170.028 47.4545 169.707 47.071 169.472 46.5682C169.236 46.0653 169.118 45.4545 169.118 44.7358C169.118 44.0085 169.237 43.3949 169.476 42.8949C169.717 42.392 170.043 42.0128 170.452 41.7571C170.861 41.4986 171.317 41.3693 171.82 41.3693C172.203 41.3693 172.518 41.4346 172.766 41.5653C173.013 41.6932 173.209 41.848 173.354 42.0298C173.499 42.2088 173.611 42.3778 173.69 42.5369H173.754V39.2727H175.301V48H173.784V46.9687H173.69C173.611 47.1278 173.496 47.2969 173.345 47.4758C173.195 47.652 172.996 47.8025 172.749 47.9275C172.501 48.0525 172.19 48.115 171.815 48.115ZM172.246 46.8494C172.572 46.8494 172.851 46.7613 173.081 46.5852C173.311 46.4062 173.486 46.1576 173.605 45.8395C173.724 45.5213 173.784 45.1505 173.784 44.7273C173.784 44.304 173.724 43.9361 173.605 43.6236C173.489 43.3111 173.315 43.0682 173.085 42.8949C172.858 42.7216 172.578 42.6349 172.246 42.6349C171.902 42.6349 171.615 42.7244 171.385 42.9034C171.155 43.0824 170.982 43.3295 170.865 43.6449C170.749 43.9602 170.69 44.321 170.69 44.7273C170.69 45.1363 170.749 45.5014 170.865 45.8224C170.984 46.1406 171.159 46.392 171.389 46.5767C171.622 46.7585 171.908 46.8494 172.246 46.8494Z" fill="#666977"/>
<path d="M165.171 48.1278C164.515 48.1278 163.948 47.9914 163.471 47.7187C162.996 47.4431 162.631 47.0539 162.375 46.5511C162.12 46.0454 161.992 45.4502 161.992 44.7656C161.992 44.0923 162.12 43.5014 162.375 42.9928C162.634 42.4815 162.995 42.0838 163.458 41.7997C163.921 41.5127 164.465 41.3693 165.09 41.3693C165.493 41.3693 165.874 41.4346 166.232 41.5653C166.593 41.6931 166.911 41.892 167.186 42.1619C167.465 42.4318 167.684 42.7755 167.843 43.1931C168.002 43.6079 168.081 44.1022 168.081 44.6761V45.1491H162.716V44.1093H166.603C166.6 43.8139 166.536 43.5511 166.411 43.321C166.286 43.088 166.111 42.9048 165.887 42.7713C165.665 42.6377 165.407 42.571 165.111 42.571C164.796 42.571 164.519 42.6477 164.28 42.8011C164.042 42.9516 163.855 43.1505 163.722 43.3977C163.591 43.642 163.524 43.9105 163.522 44.2031V45.1107C163.522 45.4914 163.591 45.8181 163.73 46.0909C163.87 46.3607 164.064 46.5681 164.314 46.713C164.564 46.8551 164.857 46.9261 165.192 46.9261C165.417 46.9261 165.62 46.8948 165.801 46.8323C165.983 46.767 166.141 46.6718 166.274 46.5468C166.408 46.4218 166.509 46.267 166.577 46.0823L168.017 46.2443C167.926 46.6249 167.753 46.9573 167.498 47.2414C167.245 47.5227 166.921 47.7414 166.526 47.8977C166.131 48.0511 165.679 48.1278 165.171 48.1278Z" fill="#666977"/>
<path d="M159.144 48V41.4545H160.687V48H159.144ZM159.92 40.5255C159.675 40.5255 159.465 40.4446 159.289 40.2826C159.113 40.1179 159.025 39.9204 159.025 39.6903C159.025 39.4574 159.113 39.2599 159.289 39.098C159.465 38.9332 159.675 38.8508 159.92 38.8508C160.167 38.8508 160.377 38.9332 160.55 39.098C160.727 39.2599 160.815 39.4574 160.815 39.6903C160.815 39.9204 160.727 40.1179 160.55 40.2826C160.377 40.4446 160.167 40.5255 159.92 40.5255Z" fill="#666977"/>
<path d="M157.936 41.4546V42.6477H154.067V41.4546H157.936ZM155.034 48V40.8367C155.034 40.3963 155.125 40.0298 155.307 39.7372C155.491 39.4446 155.739 39.2259 156.048 39.081C156.358 38.9361 156.702 38.8636 157.08 38.8636C157.347 38.8636 157.584 38.885 157.791 38.9276C157.999 38.9702 158.152 39.0085 158.251 39.0426L157.945 40.2358C157.879 40.2159 157.797 40.196 157.697 40.1761C157.598 40.1534 157.487 40.1421 157.365 40.1421C157.078 40.1421 156.875 40.2117 156.756 40.3509C156.639 40.4872 156.581 40.6832 156.581 40.9389V48H155.034Z" fill="#666977"/>
<path d="M151.492 48V41.4545H153.034V48H151.492ZM152.267 40.5255C152.023 40.5255 151.813 40.4446 151.637 40.2826C151.461 40.1179 151.373 39.9204 151.373 39.6903C151.373 39.4574 151.461 39.2599 151.637 39.098C151.813 38.9332 152.023 38.8508 152.267 38.8508C152.515 38.8508 152.725 38.9332 152.898 39.098C153.074 39.2599 153.162 39.4574 153.162 39.6903C153.162 39.9204 153.074 40.1179 152.898 40.2826C152.725 40.4446 152.515 40.5255 152.267 40.5255Z" fill="#666977"/>
<path d="M150.202 41.4545V42.6477H146.439V41.4545H150.202ZM147.368 39.8864H148.911V46.0312C148.911 46.2386 148.942 46.3977 149.004 46.5085C149.07 46.6165 149.155 46.6903 149.26 46.7301C149.365 46.7699 149.482 46.7898 149.609 46.7898C149.706 46.7898 149.794 46.7827 149.874 46.7685C149.956 46.7543 150.018 46.7415 150.061 46.7301L150.321 47.9361C150.239 47.9645 150.121 47.9957 149.967 48.0298C149.817 48.0639 149.632 48.0838 149.413 48.0895C149.027 48.1008 148.679 48.0426 148.369 47.9148C148.06 47.7841 147.814 47.5824 147.632 47.3096C147.453 47.0369 147.365 46.696 147.368 46.2869V39.8864Z" fill="#666977"/>
<path d="M141.824 47.9999V41.4545H143.32V42.5454H143.388C143.507 42.1675 143.712 41.8763 144.001 41.6718C144.294 41.4644 144.628 41.3607 145.003 41.3607C145.088 41.3607 145.183 41.365 145.288 41.3735C145.396 41.3792 145.486 41.3891 145.557 41.4033V42.8224C145.491 42.7996 145.388 42.7798 145.246 42.7627C145.107 42.7428 144.972 42.7329 144.841 42.7329C144.56 42.7329 144.307 42.794 144.082 42.9161C143.861 43.0354 143.686 43.2016 143.558 43.4147C143.43 43.6278 143.366 43.8735 143.366 44.1519V47.9999H141.824Z" fill="#666977"/>
<path d="M137.608 48.1278C136.952 48.1278 136.385 47.9914 135.908 47.7187C135.434 47.4431 135.069 47.0539 134.813 46.5511C134.557 46.0454 134.429 45.4502 134.429 44.7656C134.429 44.0923 134.557 43.5014 134.813 42.9928C135.071 42.4815 135.432 42.0838 135.895 41.7997C136.358 41.5127 136.902 41.3693 137.527 41.3693C137.931 41.3693 138.311 41.4346 138.669 41.5653C139.03 41.6931 139.348 41.892 139.624 42.1619C139.902 42.4318 140.121 42.7755 140.28 43.1931C140.439 43.6079 140.519 44.1022 140.519 44.6761V45.1491H135.154V44.1093H139.04C139.037 43.8139 138.973 43.5511 138.848 43.321C138.723 43.088 138.549 42.9048 138.324 42.7713C138.103 42.6377 137.844 42.571 137.549 42.571C137.233 42.571 136.956 42.6477 136.718 42.8011C136.479 42.9516 136.293 43.1505 136.159 43.3977C136.029 43.642 135.962 43.9105 135.959 44.2031V45.1107C135.959 45.4914 136.029 45.8181 136.168 46.0909C136.307 46.3607 136.502 46.5681 136.752 46.713C137.002 46.8551 137.294 46.9261 137.63 46.9261C137.854 46.9261 138.057 46.8948 138.239 46.8323C138.421 46.767 138.578 46.6718 138.712 46.5468C138.846 46.4218 138.946 46.267 139.015 46.0823L140.455 46.2443C140.364 46.6249 140.191 46.9573 139.935 47.2414C139.682 47.5227 139.358 47.7414 138.963 47.8977C138.569 48.0511 138.117 48.1278 137.608 48.1278Z" fill="#666977"/>
<path d="M133.331 42.2174H131.737C131.692 41.956 131.608 41.7245 131.486 41.5228C131.364 41.3182 131.212 41.1449 131.03 41.0029C130.848 40.8608 130.641 40.7543 130.408 40.6833C130.178 40.6094 129.929 40.5725 129.662 40.5725C129.188 40.5725 128.767 40.6918 128.401 40.9304C128.034 41.1662 127.747 41.5128 127.54 41.9702C127.332 42.4247 127.229 42.9801 127.229 43.6364C127.229 44.304 127.332 44.8665 127.54 45.3239C127.75 45.7784 128.037 46.1222 128.401 46.3551C128.767 46.5853 129.186 46.7003 129.658 46.7003C129.919 46.7003 130.163 46.6662 130.391 46.598C130.621 46.527 130.827 46.4233 131.009 46.287C131.193 46.1506 131.348 45.983 131.473 45.7841C131.601 45.5853 131.689 45.358 131.737 45.1023L133.331 45.1108C133.271 45.5256 133.142 45.9148 132.943 46.2784C132.747 46.6421 132.49 46.9631 132.172 47.2415C131.854 47.5171 131.482 47.733 131.055 47.8892C130.629 48.0426 130.156 48.1194 129.636 48.1194C128.869 48.1194 128.185 47.9418 127.582 47.5867C126.98 47.2316 126.506 46.7188 126.159 46.0483C125.813 45.3779 125.639 44.5739 125.639 43.6364C125.639 42.6961 125.814 41.8921 126.163 41.2245C126.513 40.554 126.989 40.0412 127.591 39.6861C128.193 39.331 128.875 39.1534 129.636 39.1534C130.122 39.1534 130.574 39.2216 130.991 39.358C131.409 39.4944 131.781 39.6946 132.108 39.9588C132.435 40.2202 132.703 40.5412 132.913 40.9219C133.126 41.2997 133.266 41.7316 133.331 42.2174Z" fill="#666977"/>
<path d="M194.756 68V59.8115H196.88V61.2397H196.968C197.119 60.7368 197.371 60.356 197.722 60.0972C198.079 59.8335 198.486 59.7017 198.945 59.7017C199.194 59.7017 199.431 59.7261 199.656 59.7749V61.7378C199.558 61.7085 199.414 61.6841 199.224 61.6646C199.038 61.6401 198.865 61.6279 198.704 61.6279C198.196 61.6279 197.776 61.7866 197.444 62.104C197.117 62.4214 196.953 62.834 196.953 63.3418V68H194.756Z" fill="#2B2E3A"/>
<path d="M189.519 68.1611C188.684 68.1611 187.964 67.9902 187.358 67.6484C186.753 67.3066 186.287 66.8208 185.959 66.1909C185.637 65.561 185.476 64.814 185.476 63.9497C185.476 63.105 185.637 62.3652 185.959 61.7305C186.287 61.0957 186.743 60.6001 187.329 60.2437C187.92 59.8872 188.613 59.709 189.409 59.709C190.122 59.709 190.769 59.8604 191.35 60.1631C191.931 60.4658 192.393 60.9248 192.734 61.54C193.081 62.1553 193.254 62.9292 193.254 63.8618V64.4771H187.651C187.676 65.146 187.861 65.6514 188.208 65.9932C188.555 66.335 189.004 66.5059 189.556 66.5059C189.941 66.5059 190.271 66.4253 190.544 66.2642C190.823 66.0981 191.021 65.8564 191.138 65.5391L193.13 65.9126C192.93 66.5913 192.515 67.1357 191.885 67.5459C191.26 67.9561 190.471 68.1611 189.519 68.1611ZM187.666 63.1001H191.138C191.084 62.5679 190.913 62.1455 190.625 61.833C190.337 61.5205 189.939 61.3643 189.431 61.3643C188.904 61.3643 188.489 61.5278 188.186 61.855C187.883 62.1772 187.71 62.5923 187.666 63.1001Z" fill="#2B2E3A"/>
<path d="M176.357 71.0615V59.8115H178.518V61.1885H178.621C178.718 60.9736 178.86 60.7515 179.045 60.522C179.236 60.2925 179.485 60.0996 179.792 59.9434C180.105 59.7871 180.493 59.709 180.957 59.709C181.562 59.709 182.117 59.8652 182.62 60.1777C183.123 60.4902 183.523 60.959 183.821 61.584C184.124 62.209 184.275 62.9878 184.275 63.9204C184.275 64.8286 184.128 65.5977 183.835 66.2275C183.542 66.8525 183.145 67.3286 182.642 67.6558C182.139 67.978 181.572 68.1392 180.942 68.1392C180.498 68.1392 180.122 68.0635 179.814 67.9121C179.507 67.7607 179.255 67.5752 179.06 67.3555C178.87 67.1309 178.723 66.9087 178.621 66.689H178.555V71.0615H176.357ZM180.269 66.374C180.84 66.374 181.274 66.1445 181.572 65.6855C181.875 65.2266 182.026 64.6357 182.026 63.9131C182.026 63.1953 181.877 62.6094 181.58 62.1553C181.282 61.6963 180.845 61.4668 180.269 61.4668C179.702 61.4668 179.265 61.689 178.958 62.1333C178.655 62.5776 178.503 63.1709 178.503 63.9131C178.503 64.6553 178.657 65.251 178.965 65.7002C179.272 66.1494 179.707 66.374 180.269 66.374Z" fill="#2B2E3A"/>
<path d="M170.82 68.1611C170 68.1611 169.29 67.9854 168.689 67.6338C168.088 67.2773 167.625 66.7842 167.297 66.1543C166.975 65.5195 166.814 64.7822 166.814 63.9424C166.814 63.0977 166.975 62.3579 167.297 61.7231C167.625 61.0884 168.088 60.5952 168.689 60.2437C169.29 59.8872 170 59.709 170.82 59.709C171.641 59.709 172.351 59.8872 172.952 60.2437C173.552 60.5952 174.014 61.0884 174.336 61.7231C174.663 62.3579 174.827 63.0977 174.827 63.9424C174.827 64.7822 174.663 65.5195 174.336 66.1543C174.014 66.7842 173.552 67.2773 172.952 67.6338C172.351 67.9854 171.641 68.1611 170.82 68.1611ZM170.82 66.4326C171.406 66.4326 171.848 66.1958 172.146 65.7222C172.444 65.2485 172.593 64.6528 172.593 63.9351C172.593 63.2124 172.444 62.6167 172.146 62.1479C171.848 61.6743 171.406 61.4375 170.82 61.4375C170.234 61.4375 169.792 61.6743 169.495 62.1479C169.202 62.6167 169.055 63.2124 169.055 63.9351C169.055 64.6528 169.202 65.2485 169.495 65.7222C169.792 66.1958 170.234 66.4326 170.82 66.4326Z" fill="#2B2E3A"/>
<path d="M165.283 57.0869V68H163.086V57.0869H165.283Z" fill="#2B2E3A"/>
<path d="M157.849 68.1611C157.014 68.1611 156.294 67.9902 155.688 67.6484C155.083 67.3066 154.617 66.8208 154.29 66.1909C153.967 65.561 153.806 64.814 153.806 63.9497C153.806 63.105 153.967 62.3652 154.29 61.7305C154.617 61.0957 155.073 60.6001 155.659 60.2437C156.25 59.8872 156.943 59.709 157.739 59.709C158.452 59.709 159.099 59.8604 159.68 60.1631C160.261 60.4658 160.723 60.9248 161.064 61.54C161.411 62.1553 161.584 62.9292 161.584 63.8618V64.4771H155.981C156.006 65.146 156.191 65.6514 156.538 65.9932C156.885 66.335 157.334 66.5059 157.886 66.5059C158.271 66.5059 158.601 66.4253 158.875 66.2642C159.153 66.0981 159.351 65.8564 159.468 65.5391L161.46 65.9126C161.26 66.5913 160.845 67.1357 160.215 67.5459C159.59 67.9561 158.801 68.1611 157.849 68.1611ZM155.996 63.1001H159.468C159.414 62.5679 159.243 62.1455 158.955 61.833C158.667 61.5205 158.269 61.3643 157.761 61.3643C157.234 61.3643 156.819 61.5278 156.516 61.855C156.213 62.1772 156.04 62.5923 155.996 63.1001Z" fill="#2B2E3A"/>
<path d="M147.742 68L144.724 59.8115H147.061L148.438 64.0596C148.55 64.4258 148.652 64.7944 148.745 65.1655C148.843 65.5366 148.936 65.9126 149.023 66.2935C149.106 65.9126 149.192 65.5391 149.28 65.1729C149.373 64.8018 149.478 64.4307 149.595 64.0596L150.957 59.8115H153.264L150.239 68H147.742Z" fill="#2B2E3A"/>
<path d="M140.476 68.1611C139.641 68.1611 138.921 67.9902 138.315 67.6484C137.71 67.3066 137.244 66.8208 136.917 66.1909C136.594 65.561 136.433 64.814 136.433 63.9497C136.433 63.105 136.594 62.3652 136.917 61.7305C137.244 61.0957 137.7 60.6001 138.286 60.2437C138.877 59.8872 139.57 59.709 140.366 59.709C141.079 59.709 141.726 59.8604 142.307 60.1631C142.888 60.4658 143.35 60.9248 143.691 61.54C144.038 62.1553 144.211 62.9292 144.211 63.8618V64.4771H138.608C138.633 65.146 138.818 65.6514 139.165 65.9932C139.512 66.335 139.961 66.5059 140.513 66.5059C140.898 66.5059 141.228 66.4253 141.501 66.2642C141.78 66.0981 141.978 65.8564 142.095 65.5391L144.087 65.9126C143.887 66.5913 143.472 67.1357 142.842 67.5459C142.217 67.9561 141.428 68.1611 140.476 68.1611ZM138.623 63.1001H142.095C142.041 62.5679 141.87 62.1455 141.582 61.833C141.294 61.5205 140.896 61.3643 140.388 61.3643C139.861 61.3643 139.446 61.5278 139.143 61.855C138.84 62.1772 138.667 62.5923 138.623 63.1001Z" fill="#2B2E3A"/>
<path d="M129.827 68H125.989V57.0869H129.863C130.957 57.0869 131.897 57.3066 132.683 57.7461C133.474 58.1807 134.082 58.8057 134.507 59.6211C134.932 60.4316 135.144 61.4033 135.144 62.5361C135.144 63.6738 134.932 64.6504 134.507 65.4658C134.082 66.2812 133.472 66.9087 132.676 67.3481C131.88 67.7827 130.93 68 129.827 68ZM128.223 66.0737H129.717C130.767 66.0737 131.562 65.7905 132.104 65.2241C132.646 64.6577 132.917 63.7617 132.917 62.5361C132.917 61.3154 132.646 60.4243 132.104 59.8628C131.567 59.2964 130.776 59.0132 129.731 59.0132H128.223V66.0737Z" fill="#2B2E3A"/>
</g>
<defs>
<linearGradient id="paint0_linear_1777_6028" x1="119.546" y1="140.478" x2="119.546" y2="0" gradientUnits="userSpaceOnUse">
<stop stop-color="#205EE3"/>
<stop offset="1" stop-color="#189EFF"/>
</linearGradient>
<clipPath id="clip0_1777_6028">
<rect width="250" height="110" fill="white"/>
</clipPath>
</defs>
</svg>